<svg width="1146" height="527" fill="none" xmlns="http://www.w3.org/2000/svg"><path d="M1.194 422.535a6.687 6.687 0 0 0 9.764 4.758l49.64 73.727a6.66 6.66 0 0 0-2.084 6.064 6.687 6.687 0 0 0 7.724 5.463 6.699 6.699 0 0 0 5.389-5.054l154.448 13.033c.013.231.039.465.079.702a6.688 6.688 0 0 0 7.724 5.463 6.689 6.689 0 0 0 5.098-9.037l74.755-42.808a6.69 6.69 0 0 0 11.848-5.273 6.624 6.624 0 0 0-1.99-3.718l54.398-77.439a6.678 6.678 0 0 0 4.119.622 6.677 6.677 0 0 0 3.943-2.228l188.884 119.394a6.68 6.68 0 0 0 7.243 9.297 6.69 6.69 0 0 0 5.465-7.725 6.754 6.754 0 0 0-.991-2.53l202.048-179.068a6.68 6.68 0 0 0 7.445 4.402 6.69 6.69 0 0 0 5.33-8.338l91.128-39.668a6.694 6.694 0 0 0 6.797 3.053c3.314-.562 5.631-3.483 5.555-6.742l123.947-21.182c1.01 3.106 4.16 5.082 7.47 4.512a6.685 6.685 0 0 0 4.55-3.067l91.35 39.606a6.662 6.662 0 0 0-.11 2.784c.62 3.644 4.08 6.085 7.72 5.463a6.69 6.69 0 0 0 5.47-7.725c-.57-3.335-3.52-5.656-6.81-5.556L1105.5 85.557a6.685 6.685 0 0 0 4.59-7.506 6.684 6.684 0 0 0-7.72-5.463c-1.31.22-2.46.816-3.37 1.649l-78.33-64.116a6.662 6.662 0 0 0 .86-4.555c-.62-3.644-4.08-6.086-7.73-5.463-3.64.623-6.08 4.08-5.46 7.724.18 1.06.6 2.018 1.21 2.83l-59.537 58.988a6.644 6.644 0 0 0-5.137-1.24 6.715 6.715 0 0 0-4.593 3.122l-66.506-26.03a6.698 6.698 0 0 0 .023-2.33 6.687 6.687 0 0 0-7.724-5.463 6.69 6.69 0 0 0-5.465 7.724l.011.016-.238-.97-212.665 52.453c-1.166-2.837-4.166-4.602-7.316-4.062a6.642 6.642 0 0 0-3.861 2.143l-76.611-50.28a6.688 6.688 0 0 0-7.2-9.401 6.689 6.689 0 0 0-3.853 11.055l-88.404 106.477a6.652 6.652 0 0 0-4.595-.877 6.689 6.689 0 0 0-5.464 7.725 6.662 6.662 0 0 0 1.796 3.534l-51.476 67.339a6.637 6.637 0 0 0-4.364-.744 6.69 6.69 0 0 0-5.465 7.725c.044.258.109.512.181.76L251.369 306.27c-1.448-2.016-3.953-3.153-6.567-2.704a6.648 6.648 0 0 0-4.503 2.997l-98.075-41.882a6.823 6.823 0 0 0 .167-2.942 6.686 6.686 0 0 0-7.724-5.463 6.696 6.696 0 0 0-5.51 7.432L12.188 309.015c-1.441-2.058-3.97-3.226-6.612-2.767a6.689 6.689 0 0 0-5.465 7.724 6.693 6.693 0 0 0 4.974 5.362l1.538 95.527c-3.594.658-6.006 4.094-5.385 7.702l-.044-.028zm12.062-110.852a7.682 7.682 0 0 0-.232-.928l116.621-45.173a7.9 7.9 0 0 0 .57 1.029L51.74 364.214l-40.26-46.788a6.633 6.633 0 0 0 1.762-5.745l.013.002zm629.379-205.634a6.564 6.564 0 0 0 2.37-.899l61.565 73.352-66.318-59.879 1.457-12.489a6.43 6.43 0 0 0 .912-.088l.014.003zm228.997-56.768 45.442 43.73-40.117 27.916a6.694 6.694 0 0 0-4.241-2.062l-3.632-68.17a6.708 6.708 0 0 0 2.548-1.414zm144.418-36.006a6.595 6.595 0 0 0 3.37-1.649l78.33 64.116c-.42.688-.7 1.459-.84 2.265l-93.44-2.485 11.25-62.155c.44.013.89-.022 1.33-.092zM236.396 514.499a6.651 6.651 0 0 0-4.772-.988 6.607 6.607 0 0 0-3.778 2.058l-106.068-72.521c.147-.311.274-.633.381-.965l157.382 23.692-43.139 48.732-.006-.008zM133.072 268.973 115.489 433.44c-.28.012-.563.038-.856.083a6.636 6.636 0 0 0-2.446.942l-59.138-68.723 78.526-97.664c.459.364.961.672 1.495.909l.002-.014zm-22.125 175.785-11.735 15.254-83.633-36.959 93.492 16.855c-.013.444.016.881.092 1.332a6.615 6.615 0 0 0 1.784 3.518zm1.562 1.199a6.698 6.698 0 0 0 4.384.753 6.607 6.607 0 0 0 3.778-2.058l102.705 70.226-122.305-54.053 11.438-14.868zm18.343-4.566 162.912 3.156a1.9 1.9 0 0 0 .033.277 6.708 6.708 0 0 0 1.475 3.178l-14.181 16.015-150.247-22.62.008-.006zm165.897 7.907a6.653 6.653 0 0 0 6.585.401l11.09 16.12a6.637 6.637 0 0 0-1.832 2.94l-29.186-4.395 13.335-15.06.008-.006zm21.125 14.822a6.61 6.61 0 0 0-1.813.588l-11.09-16.119a6.68 6.68 0 0 0 1.302-8.11l70.072-53.239s.042.041.067.059l-54.404 77.432a6.675 6.675 0 0 0-4.118-.622l-.016.011zm145.222-302.845 60.661 16.749-18.596 87.068a6.57 6.57 0 0 0-2.086.197l-42.609-101.01a6.736 6.736 0 0 0 2.643-3.002l-.013-.002zM1100.19 85l-50.63 130.985-56.726-52.933a6.655 6.655 0 0 0 .495-6.738l105.261-72.56c.46.497 1 .923 1.59 1.252l.01-.006zm32.85 211.944-91.29-39.561c.25-.903.31-1.876.14-2.858a6.71 6.71 0 0 0-3.3-4.694l11.76-30.42 82.83 77.297c-.06.075-.1.158-.15.228l.01.008zM961.343 195.437l22.515-30.462a6.688 6.688 0 0 0 4.606.893c.322-.055.635-.138.936-.238l42.06 84.558c-.25.184-.51.373-.73.583l-69.387-55.334zm-59.894 77.738a6.589 6.589 0 0 0-3.28-.776l-23.99-140.513a6.698 6.698 0 0 0 2.479-1.459l81.981 65.368-57.183 77.374-.007.006zm-110.588 45.627a5.958 5.958 0 0 0-.678.64l-107.772-75.038 31.681-49.385a6.695 6.695 0 0 0 3.513.353 6.364 6.364 0 0 0 1.165-.319l72.091 123.749zM386.585 378.79l81.063-72.518 80.575 78.025a6.687 6.687 0 0 0-1.14 2.7l-159.444-5.276c-.016-.121-.018-.24-.048-.363a6.737 6.737 0 0 0-1.008-2.554l.002-.014zM710.37 191.505a6.599 6.599 0 0 0 2 2.542l-31.58 49.226-46.876-32.63a6.68 6.68 0 0 0 1.793-5.009l74.663-14.129zm323.8 57.552c-.32.054-.63.138-.93.237l-42.038-84.581.306-.224 57.302 53.468-12.05 31.162a6.527 6.527 0 0 0-2.59-.07v.008zM552.543 381.578c-.18.035-.354.077-.527.12l-42.818-101.859-.99-2.363a6.708 6.708 0 0 0 2.924-3.773l82.256 12.245-38.18 95.698a6.624 6.624 0 0 0-2.663-.082l-.002.014zm-41.115-109.815a6.932 6.932 0 0 0-.088-1.128 8.145 8.145 0 0 0-.302-1.142l112.092-60.296c.161.304.346.59.542.858l-29.533 74.031-82.718-12.317.007-.006zm113.766-60.216c.485.333 1.013.61 1.573.816l20.413 75.026a6.708 6.708 0 0 0-3.685 4.052l-47.349-7.048 29.054-72.839-.006-.007zm27.313 75.823a6.643 6.643 0 0 0-3.427-.499l-20.166-74.11c.416.009.832-.016 1.255-.097a6.606 6.606 0 0 0 2.133-.761l47.429 33.024-27.238 42.441.014.002zm-146.639-9.005c.179-.035.353-.077.527-.12l43.807 104.222c-.208.128-.41.263-.593.409l-80.473-77.919 31.34-28.033a6.662 6.662 0 0 0 5.403 1.457l-.011-.016zm51.167 104.033 38.353-96.138 47.77 7.114c-.009.417.022.84.089 1.261a6.709 6.709 0 0 0 1.129 2.72l-86.69 85.472a6.687 6.687 0 0 0-.657-.437l.006.008zm97.135-93.987 27.176-42.361 107.716 74.994a7.277 7.277 0 0 0-.281.639L656.53 293.775a6.874 6.874 0 0 0-.089-1.394 6.624 6.624 0 0 0-2.271-3.97zm223.711-159.528c.106-.186.204-.366.288-.548l102.543 30.017a6.467 6.467 0 0 0 .036 2.047 6.612 6.612 0 0 0 1.6 3.316l-22.535 30.5-81.926-65.324-.006-.008zm-168.029 60.722-74.551 14.119a6.69 6.69 0 0 0-4.517-4.091l9.203-78.599 70.935 64.042a6.654 6.654 0 0 0-1.07 4.529zm-81.024 9.792a8.084 8.084 0 0 0-.918.08c-.25.037-.49.104-.731.171L557.487 47.523c.21-.141.401-.292.606-.442l80.1 72.322-9.357 79.988-.008.006zm-6.367 7.925-112.375 60.455a6.754 6.754 0 0 0-3.012-2.261l18.578-86.96 96.741 26.707a6.658 6.658 0 0 0 .044 1.944c.007.043.017.072.024.115zm-123.323 68.132-31.439 28.129-65.027-62.966c.252-.316.478-.65.666-1.004l94.788 31.036a6.95 6.95 0 0 0-.01 2.249c.159.944.52 1.802 1.009 2.554l.013.002zm-100.55-32.423a6.684 6.684 0 0 0 2.633-1.066l64.996 62.941-80.951 72.424a6.583 6.583 0 0 0-2.581-1.323l14.585-132.882c.43.012.867-.018 1.31-.088l.008-.006zM387.57 383.675l159.445 5.276c.016.121.018.24.048.363a6.69 6.69 0 0 0 7.105 5.541l24.484 107.839a6.66 6.66 0 0 0-2.648 1.873L387.12 385.173c.207-.477.362-.975.458-1.504l-.008.006zm192.988 118.592-24.483-107.839a6.705 6.705 0 0 0 4.216-7.007l64.014-17.192-42.174 132.095a6.862 6.862 0 0 0-1.579-.065l.006.008zm-20.771-116.743a6.828 6.828 0 0 0-.728-1.278l86.667-85.454c.36.279.747.528 1.161.732l-21.865 68.483-65.228 17.511-.007.006zm88.971-85.402a6.65 6.65 0 0 0 2.203-.004 6.712 6.712 0 0 0 5.195-4.395l132.218 27.896c-.014.179-.015.36-.007.535l-161.076 43.245 21.475-67.283-.008.006zm145.154 17.31a6.72 6.72 0 0 0-1.357.387L720.496 194.13a6.255 6.255 0 0 0 1.191-1.159l103.356 51.034-28.53 73.505a6.686 6.686 0 0 0-2.603-.065l.002-.013zm-71.233-126.173a6.659 6.659 0 0 0 .399-3.533l143.26-58.77a6.74 6.74 0 0 0 2.434 2.393l-43.015 110.809-103.078-50.899zm147.926-59.199a6.153 6.153 0 0 0 1.62.156l23.991 140.512a6.686 6.686 0 0 0-3.414 2.54l-65.273-32.234 43.076-110.974zm32.418 142.28 57.138-77.318 69.329 55.283a6.765 6.765 0 0 0-.9 3.497l-123.939 21.183a6.625 6.625 0 0 0-1.634-2.652l.006.007zm231.477 20.909-83.38-77.809 50.9-131.729c.49.112 1.01.165 1.54.156l33.05 208.205c-.79.261-1.5.659-2.12 1.169l.01.008zm-37.64-215.256c.02.107.02.213.04.32.11.644.31 1.254.59 1.82l-105.259 72.561a6.791 6.791 0 0 0-2.74-1.773l13.639-75.425 93.73 2.497zm-109.314 72.576a6.67 6.67 0 0 0-1.332.092c-.043.007-.093.02-.144.033l-36.531-72.037a6.695 6.695 0 0 0 3.033-4.516l48.548 1.292-13.588 75.134.014.002zm-40.43-70.987c.215-.036.41-.082.613-.134l36.461 71.907a7.19 7.19 0 0 0-.945.605l-63.082-60.698 20.484-14.25a6.681 6.681 0 0 0 6.469 2.57zm34.765 73.796c-.171.245-.322.5-.46.757l-102.701-29.72a6.473 6.473 0 0 0-.04-2.02 6.407 6.407 0 0 0-.603-1.85L918.522 94.4l63.361 60.964-.002.014zM863.36 49.773a6.652 6.652 0 0 0 3.771 1.202l3.622 68.009c-3.527.717-5.875 4.107-5.262 7.672.031.159.062.317.107.477l-143.11 58.71c-.089-.188-.194-.365-.299-.542L863.36 49.773zm-223.596 56.141-1.302 11.099-74.488-67.258 71.462 46.892a6.644 6.644 0 0 0-.525 3.939c.456 2.656 2.414 4.662 4.853 5.328zm-84.802-57.391c.249-.038.495-.097.73-.172l69.692 152.125a6.736 6.736 0 0 0-2.466 2.897l-96.853-26.745 27.351-128.026c.504.03 1.022.013 1.546-.08zm-3.474-.333-27.334 127.917-60.541-16.716a6.666 6.666 0 0 0-1.656-5.276l88.41-106.47c.35.215.733.394 1.121.545zM458.104 165.17c.179-.034.359-.069.541-.117l42.609 101.01a6.748 6.748 0 0 0-2.502 2.717l-94.736-31.013a6.668 6.668 0 0 0-1.752-6.001l51.475-67.34a6.635 6.635 0 0 0 4.365.744zm-62.897 77.556s.085.034.132.048l-14.598 133.013a9.252 9.252 0 0 0-.87.08 6.627 6.627 0 0 0-4.233 2.607l-34.99-18.756 54.551-116.986.008-.006zm-20.495 137.485a6.663 6.663 0 0 0 .432 5.482l-70.072 53.239a5.764 5.764 0 0 0-.985-.788l35.729-76.625 34.886 18.711.01-.019zm-72.409 57.09a6.717 6.717 0 0 0-3.03-.187 7.95 7.95 0 0 0-.455.103l-49.476-121.321a6.66 6.66 0 0 0 2.001-1.834l86.752 46.519-35.778 76.722-.014-.002zm-55.276-120.547c.172-.029.324-.068.49-.104l49.476 121.321-.332.206-84.804-92.741 29.963-29.968c1.425 1.093 3.286 1.628 5.199 1.292l.008-.006zm48.187 122.744a6.72 6.72 0 0 0-1.403 3.097l-171.414-3.326c-.007-.091-.013-.183-.028-.269a6.597 6.597 0 0 0-1.226-2.853l89.321-89.332 84.745 92.675.005.008zm-175.465-4.732a6.725 6.725 0 0 0-2.301-1.105l17.555-164.157a6.962 6.962 0 0 0 1.882-.048 6.606 6.606 0 0 0 2.133-.761l70.111 76.671-89.386 89.392.006.008zm-9.048.999a6.792 6.792 0 0 0-1.275 2.233l-94.964-17.121c-.019-.191-.037-.382-.07-.575a6.685 6.685 0 0 0-2.106-3.827l39.527-49.157 58.902 68.449-.014-.002zm-98.162-9.627a6.673 6.673 0 0 0 1.23-1.717l84.22 37.218-29.61 38.497a6.69 6.69 0 0 0-4.383-.754c-.623.105-1.204.3-1.753.556l-49.702-73.814-.002.014zm59.257 79.423a6.615 6.615 0 0 0-1.863-4.221l29.905-38.869 126.47 55.895c-.026.079-.053.159-.066.241L71.794 505.575l.002-.013zm166.215 10.423a1.538 1.538 0 0 0-.137-.154l43.986-49.688 30.445 4.585a6.332 6.332 0 0 0 .453 2.454l-74.755 42.808.008-.005zm347.357-12.166a6.372 6.372 0 0 0-1.348-.872l42.558-133.304 158.093-42.442-199.298 176.626-.005-.008zm215.347-183.326a6.705 6.705 0 0 0-2.369-2.272l28.462-73.335 65.117 32.154a6.672 6.672 0 0 0-.096 3.783l-91.128 39.668.014.002zM1010.92 12.042c.56.422 1.19.757 1.86.98l-11.29 62.455-48.861-1.306c-.018-.107-.022-.212-.041-.32a6.58 6.58 0 0 0-1.209-2.83l59.531-58.987.01.008zM939.514 73.33a6.714 6.714 0 0 0-.114 2.783c.068.408.176.787.313 1.157l-20.977 14.6-45.83-44.098c.083-.133.161-.274.233-.423l66.383 25.975-.008.006zm-78.706-27.07a6.65 6.65 0 0 0 1.119 2.161l-141 135.367a6.691 6.691 0 0 0-5.582-1.603 6.551 6.551 0 0 0-2.37.898l-66.458-79.181a6.686 6.686 0 0 0 1.648-5.06l212.673-52.459-.032-.109.002-.014zm-468.94 193.841a6.77 6.77 0 0 0 1.591 1.684L338.9 358.778l-86.683-46.474a6.556 6.556 0 0 0-.012-4.294l139.65-67.911.013.002zM239.45 308.34a6.616 6.616 0 0 0 .999 5.696l-29.93 29.931-69.945-76.492a6.64 6.64 0 0 0 .8-1.017l98.084 41.876-.008.006zM7.783 319.413a6.73 6.73 0 0 0 2.148-.772l40.562 47.135-39.857 49.579a6.837 6.837 0 0 0-2.088-.598l-1.535-95.276c.253-.016.514-.038.772-.081l-.002.013z" fill="#000" fill-opacity=".03"/></svg>