<svg width="211" height="32" fill="none" xmlns="http://www.w3.org/2000/svg"><path d="M205.236 8.807 211 22.54h-4.043l-.891-2.289h-5.391l-.891 2.289h-4.043l5.764-13.732h3.731zm-3.4 8.5h3.069l-1.534-3.922-1.535 3.923zM191.92 20.312l2.135 2.227h-3.981l-.394-.51a8.006 8.006 0 0 1-3.586.837c-2.101 0-3.898-.701-5.391-2.104-1.492-1.403-2.239-3.1-2.239-5.088 0-1.99.747-3.685 2.239-5.088 1.493-1.404 3.29-2.105 5.391-2.105s3.897.701 5.39 2.105c1.493 1.403 2.239 3.099 2.239 5.088 0 1.757-.601 3.303-1.803 4.638zm-2.675-2.82a3.568 3.568 0 0 0 .498-1.818c0-.995-.36-1.84-1.078-2.534-.705-.709-1.562-1.063-2.571-1.063a3.561 3.561 0 0 0-2.592 1.063c-.705.695-1.057 1.54-1.057 2.534a3.49 3.49 0 0 0 1.057 2.554c.719.695 1.583 1.042 2.592 1.042.428 0 .85-.075 1.264-.225l-1.596-2.064h2.986l.497.511zM171.627 12.404h-5.307v1.635h4.312v3.269h-4.312v1.635h5.307v3.596h-9.288V8.807h9.288v3.597zM147.366 8.807h11.278v3.597h-3.648v10.135h-3.981V12.404h-3.649V8.807zM141.888 8.807l5.764 13.732h-4.043l-.891-2.289h-5.391l-.891 2.289h-4.043l5.763-13.732h3.732zm-3.4 8.5h3.069l-1.535-3.922-1.534 3.923zM128.735 8.807l1.327 13.732h-3.981l-.663-7.193-2.322 7.193h-3.317l-2.322-7.193-.664 7.193h-3.98l1.326-13.732h3.981l3.317 8.174 3.317-8.174h3.981zM109.882 22.539h-3.98V8.807h3.98V22.54zM90.929 8.807h11.278v3.597h-3.649v10.135h-3.98V12.404h-3.65V8.807zM84.386 18.943h5.307v3.596h-9.288V8.807h3.98v10.136zM73.072 8.807h4.312v7.847c0 1.84-.594 3.337-1.783 4.495-1.189 1.145-2.806 1.717-4.851 1.717-2.046 0-3.663-.572-4.852-1.716-1.188-1.159-1.783-2.657-1.783-4.496V8.807h4.313v7.888c0 .817.228 1.45.684 1.9a2.25 2.25 0 0 0 1.638.675 2.25 2.25 0 0 0 1.637-.675c.457-.45.685-1.083.685-1.9V8.807z" fill="#003A94"/><path fill-rule="evenodd" clip-rule="evenodd" d="m28.156.5 9.104 8.973L15.533 31.5 0 17.466l4.882-4.811L6.51 14.26l-3.18 3.135 12.11 10.942L34.024 9.496 28.156 3.71 15.528 16.157l-6.57-5.829 1.54-1.687 4.947 4.387L28.156.5zm20.156 29.418V2.105h2.304v27.813h-2.304z" fill="#003A94"/></svg>