<svg width="101" height="100" fill="none" xmlns="http://www.w3.org/2000/svg"><g clip-path="url(#a)" fill="#8D3CFA"><path d="M73.44 25.9H27.879c-.82 0-1.481-.66-1.481-1.48v-9.278c0-.82.661-1.481 1.48-1.481h45.564c.819 0 1.48.661 1.48 1.48v9.28c0 .818-.661 1.48-1.48 1.48zm-44.082-2.96H71.96v-6.318H29.358v6.317z"/><path d="M73.44 62.965H27.879c-.82 0-1.481-.661-1.481-1.48V24.42c0-.82.661-1.48 1.48-1.48h45.564c.819 0 1.48.66 1.48 1.48v37.064c0 .82-.661 1.481-1.48 1.481zm-44.082-2.961H71.96V25.9H29.358v34.103zM33.05 21.262c-.386 0-.77-.158-1.047-.435a1.497 1.497 0 0 1-.434-1.046c0-.385.158-.78.434-1.056.553-.543 1.54-.543 2.093 0 .276.276.434.661.434 1.056a1.48 1.48 0 0 1-1.48 1.48zM37.758 19.78c0-.818.662-1.48 1.48-1.48.82 0 1.481.662 1.481 1.48 0 .81-.66 1.482-1.48 1.482s-1.48-.672-1.48-1.481zM45.426 21.262c-.088 0-.187 0-.286-.03a1.286 1.286 0 0 1-.276-.089 1.29 1.29 0 0 1-.257-.138 1.289 1.289 0 0 1-.227-.178 1.497 1.497 0 0 1-.434-1.046c0-.385.158-.78.434-1.056.07-.06.148-.129.227-.178a1.29 1.29 0 0 1 .257-.138c.089-.04.187-.06.276-.079a1.49 1.49 0 0 1 1.333.395c.276.276.434.661.434 1.056 0 .089 0 .188-.03.286 0 .089-.04.188-.079.277-.04.088-.088.177-.138.256-.05.08-.118.158-.187.227a1.462 1.462 0 0 1-1.047.435z"/><path d="M95.127 77.643H5.54a5.021 5.021 0 0 1-5.014-5.014V5.014A5.021 5.021 0 0 1 5.54 0h89.587a5.021 5.021 0 0 1 5.014 5.014V72.63a5.021 5.021 0 0 1-5.014 5.014zM5.54 2.96a2.052 2.052 0 0 0-2.053 2.053V72.63c0 1.135.918 2.053 2.053 2.053h89.587a2.052 2.052 0 0 0 2.053-2.053V5.014a2.052 2.052 0 0 0-2.053-2.053H5.54zm86.053 67.615H9.073c-.818 0-1.48-.662-1.48-1.481V8.548c0-.82.662-1.48 1.48-1.48h82.53c.819 0 1.48.66 1.48 1.48v60.557c0 .819-.661 1.48-1.48 1.48l-.01-.01zm-81.048-2.962h79.567V10.03H10.555v57.595l-.01-.01z"/><path d="M60.352 92.143H40.383c-.819 0-1.48-.661-1.48-1.48v-14.5c0-.82.661-1.481 1.48-1.481h19.969c.82 0 1.48.661 1.48 1.48v14.5c0 .82-.66 1.48-1.48 1.48zm-18.488-2.961h17.007v-11.54H41.864v11.54z"/><path d="M71.703 100h-42.68c-.82 0-1.482-.661-1.482-1.48 0-5.153 4.195-9.338 9.338-9.338h26.957c5.153 0 9.338 4.195 9.338 9.337 0 .82-.662 1.48-1.48 1.48h.009zM30.68 97.039h39.375a6.394 6.394 0 0 0-6.21-4.896H36.89a6.394 6.394 0 0 0-6.209 4.896zM55.357 53.953a1.466 1.466 0 0 1-1.323-.819 1.479 1.479 0 0 1 .661-1.984 9.674 9.674 0 0 0 5.36-8.686c0-5.36-4.363-9.713-9.713-9.713-5.35 0-9.712 4.363-9.712 9.713a9.686 9.686 0 0 0 4.61 8.272c.69.434.907 1.342.483 2.033a1.487 1.487 0 0 1-2.033.484 12.62 12.62 0 0 1-6.012-10.789c0-6.988 5.686-12.674 12.674-12.674 6.989 0 12.674 5.686 12.674 12.674 0 4.817-2.675 9.16-6.988 11.332a1.479 1.479 0 0 1-.662.157h-.02z"/><path d="M37.759 54.121c-.8 0-1.451-.632-1.48-1.441-.02-.82.621-1.5 1.43-1.52l5.41-.158-.158-5.41c-.02-.819.622-1.5 1.431-1.52.82-.039 1.5.622 1.52 1.432l.207 6.89c.02.819-.621 1.5-1.43 1.52l-6.89.207h-.05.01z"/></g><defs><clipPath id="a"><path fill="#fff" transform="translate(.526)" d="M0 0h99.615v100H0z"/></clipPath></defs></svg>