<svg width="102" height="100" fill="none" xmlns="http://www.w3.org/2000/svg"><g clip-path="url(#a)" fill="#8D3CFA"><path d="M58.151 19.523H41.55c-.808 0-1.46-.652-1.46-1.46V1.46c0-.594.36-1.12.905-1.354a1.454 1.454 0 0 1 1.588.321L59.183 17.03a1.457 1.457 0 0 1-1.032 2.493zM43.01 16.602h11.607L43.01 4.985v11.617zM30.42 35.132H10.303c-.808 0-1.46-.653-1.46-1.461V18.053c0-.809.652-1.461 1.46-1.461H30.43c.808 0 1.46.652 1.46 1.46v15.619c0 .808-.652 1.46-1.46 1.46h-.01zM11.754 32.21H28.96V19.513H11.764V32.21h-.01z"/><path d="M34.568 76.417h-32.2c-.808 0-1.46-.653-1.46-1.46V1.46C.907.652 1.56 0 2.367 0H41.56c.808 0 1.46.652 1.46 1.46v15.142h15.141c.808 0 1.46.652 1.46 1.46v20.146c0 .809-.652 1.46-1.46 1.46H36.04v35.288c0 .808-.653 1.46-1.46 1.46h-.01zm-30.74-2.921h29.28V38.208c0-.808.652-1.46 1.46-1.46h22.123V19.523H41.55c-.808 0-1.46-.652-1.46-1.46V2.92H3.827v70.575z"/><path d="M99.632 100H34.57c-.808 0-1.46-.652-1.46-1.46V38.209c0-.809.652-1.461 1.46-1.461h65.063c.808 0 1.461.652 1.461 1.46V98.54c0 .808-.653 1.46-1.46 1.46zM36.03 97.08h62.143V39.67H36.03v57.41z"/><path d="M63.196 61.5H43.147c-.808 0-1.46-.653-1.46-1.461V45.677c0-.808.652-1.46 1.46-1.46h20.049c.808 0 1.46.652 1.46 1.46v14.362c0 .808-.652 1.46-1.46 1.46zm-18.588-2.922h17.127v-11.44H44.608v11.44zM91.472 61.5H69.194c-.808 0-1.46-.653-1.46-1.461V45.677c0-.808.652-1.46 1.46-1.46h22.278c.809 0 1.461.652 1.461 1.46v14.362c0 .808-.652 1.46-1.46 1.46zm-20.817-2.922h19.357v-11.44H70.654v11.44zM91.472 75.453H43.157c-.808 0-1.46-.653-1.46-1.46V67.78c0-.808.652-1.46 1.46-1.46h48.315c.809 0 1.46.652 1.46 1.46v6.212c0 .808-.651 1.46-1.46 1.46zm-46.855-2.921h45.395V69.24H44.617v3.29zM91.472 89.338H43.157c-.808 0-1.46-.652-1.46-1.46v-6.213c0-.808.652-1.46 1.46-1.46h48.315c.809 0 1.46.652 1.46 1.46v6.212c0 .809-.651 1.46-1.46 1.46zm-46.855-2.921h45.395v-3.291H44.617v3.29z"/></g><defs><clipPath id="a"><path fill="#fff" transform="translate(.907)" d="M0 0h100.185v100H0z"/></clipPath></defs></svg>