<svg width="101" height="100" fill="none" xmlns="http://www.w3.org/2000/svg"><g clip-path="url(#a)" fill="#8D3CFA"><path d="M78.98 99.2H1.841A1.48 1.48 0 0 1 .36 97.718V1.482C.36.662 1.022 0 1.842 0h54.185c.82 0 1.482.662 1.482 1.482v21.47h21.47c.82 0 1.482.662 1.482 1.482v73.284A1.48 1.48 0 0 1 78.98 99.2zM3.323 96.235h74.173V25.916h-21.47a1.48 1.48 0 0 1-1.482-1.482V2.964H3.325v93.272z"/><path d="M78.978 25.916H56.026a1.48 1.48 0 0 1-1.482-1.482V1.482c0-.603.366-1.136.919-1.373a1.475 1.475 0 0 1 1.61.326l22.953 22.952a1.479 1.479 0 0 1-1.048 2.53zm-21.47-2.964h17.894L57.508 5.06v17.893zM30.327 52.11H14.696a1.48 1.48 0 0 1-1.482-1.483v-8.3c0-.82.662-1.481 1.482-1.481h15.63c.82 0 1.483.662 1.483 1.482v8.3a1.48 1.48 0 0 1-1.482 1.481zm-14.149-2.965h12.667V43.81H16.178v5.335zM35.376 83.954h-22.36a1.48 1.48 0 0 1-1.482-1.482v-8.3c0-.82.662-1.482 1.482-1.482h22.36c.82 0 1.482.662 1.482 1.483v8.3a1.48 1.48 0 0 1-1.482 1.481zM14.498 80.99h19.396v-5.335H14.498v5.335zM52.085 67.76H36.454a1.48 1.48 0 0 1-1.482-1.482v-8.3c0-.82.662-1.482 1.482-1.482h15.63c.82 0 1.483.662 1.483 1.482v8.3a1.48 1.48 0 0 1-1.482 1.482zm-14.15-2.964h12.667V59.46H37.936v5.336zM70.601 83.42H58.913a1.48 1.48 0 0 1-1.482-1.481v-8.3c0-.82.662-1.482 1.482-1.482H70.6c.82 0 1.482.662 1.482 1.482v8.3a1.48 1.48 0 0 1-1.482 1.482zm-10.206-2.964h8.724v-5.335h-8.724v5.335zM44.032 30.402H35.13a1.48 1.48 0 0 1-1.483-1.482v-6.323c0-.82.663-1.483 1.483-1.483h8.902c.82 0 1.482.662 1.482 1.483v6.323a1.48 1.48 0 0 1-1.482 1.482zm-7.42-2.964h5.938v-3.36h-5.938v3.36zM69.613 52.11H57.924a1.48 1.48 0 0 1-1.482-1.483v-8.3c0-.82.662-1.481 1.482-1.481h11.689c.82 0 1.482.662 1.482 1.482v8.3a1.48 1.48 0 0 1-1.482 1.481zm-10.206-2.965h8.724V43.81h-8.724v5.335zM28.351 33.82H16.663a1.48 1.48 0 0 1-1.482-1.481v-8.3c0-.82.662-1.482 1.482-1.482H28.35c.82 0 1.482.662 1.482 1.482v8.3a1.48 1.48 0 0 1-1.482 1.482zm-10.206-2.963h8.724V25.52h-8.724v5.336z"/><path d="M36.463 63.62H21.919a1.48 1.48 0 0 1-1.483-1.482v-11.51c0-.82.663-1.483 1.483-1.483.82 0 1.482.662 1.482 1.482v10.03h13.062c.82 0 1.482.661 1.482 1.481a1.48 1.48 0 0 1-1.482 1.482zM58.822 79.27H44.278a1.48 1.48 0 0 1-1.482-1.481V66.288c0-.82.662-1.482 1.482-1.482s1.482.662 1.482 1.482v10.019h13.062c.82 0 1.482.662 1.482 1.482a1.48 1.48 0 0 1-1.482 1.482z"/><path d="M26.602 75.655a1.48 1.48 0 0 1-1.482-1.482V62.128c0-.82.662-1.482 1.482-1.482s1.482.662 1.482 1.482v12.045a1.48 1.48 0 0 1-1.482 1.482zM45.159 59.214a1.48 1.48 0 0 1-1.482-1.483V46.478c0-.82.662-1.482 1.482-1.482h12.775c.82 0 1.482.662 1.482 1.482a1.48 1.48 0 0 1-1.482 1.482H46.641v9.771a1.48 1.48 0 0 1-1.482 1.483zM22.512 43.593a1.48 1.48 0 0 1-1.482-1.483V32.35c0-.82.662-1.482 1.482-1.482s1.482.661 1.482 1.482v9.761a1.48 1.48 0 0 1-1.482 1.483z"/><path d="M48.478 47.96h-8.971a1.48 1.48 0 0 1-1.483-1.482V30.027c0-.82.662-1.482 1.483-1.482.82 0 1.482.661 1.482 1.482v14.968h7.489c.82 0 1.482.663 1.482 1.483a1.48 1.48 0 0 1-1.482 1.482zM99.491 92.866H87.368a1.48 1.48 0 0 1-1.482-1.482V17.42c0-.82.662-1.482 1.482-1.482s1.482.662 1.482 1.482v72.483h9.16V17.42c0-.82.661-1.482 1.481-1.482.82 0 1.482.662 1.482 1.482v73.965a1.48 1.48 0 0 1-1.482 1.482z"/><path d="M99.492 18.901a1.478 1.478 0 0 1-1.383-.948L93.425 5.948l-4.683 12.005a1.48 1.48 0 0 1-2.757-1.077l6.067-15.542c.217-.573.77-.949 1.383-.949s1.156.376 1.383.949l6.067 15.542c.296.76-.079 1.62-.84 1.917-.178.069-.356.099-.534.099l-.02.01z"/><path d="M90.796 19.89c-.306 0-.612-.1-.87-.287l-2.716-1.976a1.484 1.484 0 0 1-.326-2.075 1.475 1.475 0 0 1 2.065-.326l1.847 1.344 1.848-1.344a1.483 1.483 0 0 1 1.739 0l1.858 1.344 1.857-1.344c.662-.475 1.59-.336 2.065.326.484.662.336 1.59-.326 2.065l-2.727 1.976a1.483 1.483 0 0 1-1.739 0l-1.858-1.344-1.847 1.344a1.478 1.478 0 0 1-.87.286v.01zM96.21 11.125h-5.809a1.48 1.48 0 0 1-1.482-1.482c0-.82.662-1.482 1.482-1.482h5.81c.82 0 1.482.662 1.482 1.482a1.48 1.48 0 0 1-1.482 1.482zM93.77 100h-.691a7.21 7.21 0 0 1-7.203-7.203v-1.413c0-.82.662-1.482 1.482-1.482h12.123c.82 0 1.482.662 1.482 1.482v1.413c0 3.972-3.23 7.203-7.202 7.203h.01zm-4.92-7.134a4.25 4.25 0 0 0 4.239 4.17h.691c2.312 0 4.2-1.858 4.239-4.17H88.85z"/></g><defs><clipPath id="a"><path fill="#fff" transform="translate(.36)" d="M0 0h100.613v100H0z"/></clipPath></defs></svg>