<svg width="101" height="100" fill="none" xmlns="http://www.w3.org/2000/svg"><g clip-path="url(#a)" fill="#8D3CFA"><path d="M50.822 67.596a17.146 17.146 0 0 1-12.166-5.033 17.087 17.087 0 0 1-5.042-12.166c0-4.598 1.79-8.914 5.042-12.166 6.708-6.708 17.616-6.708 24.323 0 6.707 6.707 6.707 17.615 0 24.322a17.17 17.17 0 0 1-12.166 5.033l.01.01zm0-31.495a14.21 14.21 0 0 0-10.114 4.191 14.21 14.21 0 0 0-4.19 10.114 14.21 14.21 0 0 0 4.19 10.115 14.21 14.21 0 0 0 10.114 4.19 14.21 14.21 0 0 0 10.115-4.19 14.21 14.21 0 0 0 4.19-10.115 14.21 14.21 0 0 0-4.19-10.114 14.21 14.21 0 0 0-10.115-4.19z"/><path d="M52.468 88.976c-.126 0-.252-.02-.377-.048l-22.542-6.04a1.457 1.457 0 0 1-1.036-1.761c.649-2.584-.077-5.256-1.955-7.124-1.877-1.877-4.539-2.603-7.123-1.955a1.454 1.454 0 0 1-1.762-1.035l-6.01-22.416a1.449 1.449 0 0 1 1.016-1.771 7.518 7.518 0 0 0 3.281-1.917 7.439 7.439 0 0 0 2.197-5.294 7.399 7.399 0 0 0-2.197-5.294c-.02-.02-.097-.078-.106-.097a1.435 1.435 0 0 1-.445-1.036c0-.387.145-.764.425-1.045l16.619-16.618c.28-.28.629-.426 1.045-.426.387 0 .765.165 1.036.445.019.02.087.097.106.116a7.424 7.424 0 0 0 5.285 2.188 7.415 7.415 0 0 0 5.294-2.197 7.472 7.472 0 0 0 1.965-3.504 1.448 1.448 0 0 1 1.78-1.055l22.571 6.05c.397.106.726.377.92.735.183.367.213.793.067 1.17-1.026 2.75-.358 5.856 1.713 7.918a7.476 7.476 0 0 0 7.56 1.839 1.487 1.487 0 0 1 1.132.106c.348.194.6.513.706.9l5.846 21.836c.107.387.04.793-.164 1.132-.203.339-.542.58-.93.668a7.49 7.49 0 0 0-3.687 2.013 7.507 7.507 0 0 0 0 10.588l.136.126c.29.271.454.64.464 1.036 0 .397-.145.774-.426 1.055L68.66 84.476c-.27.28-.648.406-1.045.425-.387 0-.764-.164-1.035-.445l-.117-.135a7.455 7.455 0 0 0-5.313-2.217 7.399 7.399 0 0 0-5.294 2.197 7.434 7.434 0 0 0-1.975 3.552 1.445 1.445 0 0 1-1.413 1.114v.01zM31.591 80.43l19.91 5.333a10.426 10.426 0 0 1 2.293-3.504 10.307 10.307 0 0 1 7.346-3.039c2.362 0 4.607.784 6.436 2.236l14.248-14.247c-3.224-4.075-2.953-10.018.813-13.783a10.257 10.257 0 0 1 3.668-2.361l-5.12-19.106a10.324 10.324 0 0 1-9.011-2.903 10.413 10.413 0 0 1-2.817-9.466l-19.812-5.304a10.283 10.283 0 0 1-2.274 3.446 10.307 10.307 0 0 1-7.346 3.039c-2.343 0-4.578-.775-6.388-2.197L18.874 33.237a10.322 10.322 0 0 1 2.197 6.388c0 2.778-1.085 5.381-3.04 7.346-.92.92-2.003 1.655-3.193 2.178L20.15 68.98c3.107-.329 6.253.745 8.479 2.971 2.264 2.265 3.329 5.353 2.97 8.479h-.009z"/><path d="M10.684 50.01c-2.72 0-5.38-1.065-7.346-3.04A10.307 10.307 0 0 1 .3 39.625c0-2.777 1.084-5.38 3.04-7.346 3.968-3.968 10.481-4.036 14.527-.145.068.058.116.107.165.145a10.307 10.307 0 0 1 3.039 7.346 10.347 10.347 0 0 1-7.598 9.998c-.92.252-1.858.378-2.787.378v.01zm-.01-17.848A7.434 7.434 0 0 0 5.39 34.34a7.438 7.438 0 0 0-2.197 5.294c0 2.004.775 3.881 2.197 5.294a7.518 7.518 0 0 0 7.308 1.917 7.517 7.517 0 0 0 3.28-1.917 7.439 7.439 0 0 0 2.198-5.294 7.399 7.399 0 0 0-2.197-5.294c-.02-.02-.097-.078-.107-.097a7.459 7.459 0 0 0-5.188-2.071l-.01-.01z"/><path d="M10.558 44.6a5.107 5.107 0 0 1-3.61-1.491 5.035 5.035 0 0 1-1.49-3.6c0-1.356.532-2.643 1.49-3.601 1.936-1.946 5.13-1.974 7.114-.087.029.02.068.058.077.077a5.075 5.075 0 0 1 1.51 3.62 5.058 5.058 0 0 1-1.49 3.6 5.183 5.183 0 0 1-2.236 1.307c-.455.126-.91.184-1.365.184v-.01zm0-7.279a2.183 2.183 0 0 0-2.187 2.187c0 .581.232 1.133.639 1.549a2.209 2.209 0 0 0 2.139.561 2.189 2.189 0 0 0 1.597-2.11c0-.58-.233-1.132-.64-1.548 0 0-.028-.03-.038-.03a2.186 2.186 0 0 0-1.52-.609h.01zM21.282 84.398a5.107 5.107 0 0 1-3.61-1.49c-1.984-1.985-1.984-5.217 0-7.211 1.946-1.946 5.13-1.984 7.114-.087a.29.29 0 0 1 .077.077c2.004 2.004 2.004 5.236.01 7.22a5.182 5.182 0 0 1-2.236 1.307c-.455.126-.91.184-1.364.184h.01zm0-7.278c-.561 0-1.122.213-1.548.638a2.197 2.197 0 0 0 0 3.098c.561.561 1.374.774 2.139.561a2.19 2.19 0 0 0 .958-.561 2.197 2.197 0 0 0 0-3.098s-.03-.029-.039-.029a2.17 2.17 0 0 0-1.52-.61h.01zM61.157 94.706a5.107 5.107 0 0 1-3.61-1.49c-1.984-1.985-1.984-5.218 0-7.211 1.936-1.946 5.12-1.975 7.114-.087.02.019.058.048.068.058 2.013 2.013 2.013 5.245.029 7.24a5.182 5.182 0 0 1-2.236 1.306c-.455.126-.91.184-1.365.184zm0-7.279c-.561 0-1.122.213-1.548.64a2.196 2.196 0 0 0 0 3.096 2.19 2.19 0 1 0 3.097-3.097s-.03-.029-.039-.029a2.186 2.186 0 0 0-1.52-.61h.01zM89.991 65.873a5.107 5.107 0 0 1-3.61-1.49c-1.984-1.985-1.984-5.217 0-7.211 1.946-1.945 5.14-1.974 7.124-.078.019.02.058.049.067.068 2.004 2.004 2.004 5.236.01 7.22a5.181 5.181 0 0 1-2.236 1.307c-.455.126-.91.184-1.364.184h.01zm0-7.278c-.561 0-1.122.213-1.548.639a2.197 2.197 0 0 0 0 3.097 2.187 2.187 0 0 0 3.097 0 2.197 2.197 0 0 0 0-3.098l.968-1.074-1.007 1.045a2.186 2.186 0 0 0-1.52-.61h.01zM79.529 26.8a5.107 5.107 0 0 1-3.61-1.49 5.052 5.052 0 0 1-1.49-3.6c0-1.356.532-2.643 1.49-3.601 1.945-1.946 5.13-1.975 7.114-.087.029.029.077.077.106.096a5.05 5.05 0 0 1 1.48 3.591 5.058 5.058 0 0 1-1.49 3.6 5.184 5.184 0 0 1-2.235 1.307c-.455.126-.91.184-1.365.184zm0-7.278a2.183 2.183 0 0 0-2.188 2.187c0 .58.233 1.133.64 1.549a2.209 2.209 0 0 0 2.138.561 2.189 2.189 0 0 0 1.597-2.11c0-.58-.232-1.132-.638-1.548l-.03-.03a2.186 2.186 0 0 0-1.52-.61zM40.136 15.273a5.107 5.107 0 0 1-3.61-1.49 5.035 5.035 0 0 1-1.49-3.601c0-1.355.532-2.642 1.49-3.6 1.936-1.946 5.13-1.975 7.114-.088.029.02.068.058.077.078 2.004 2.003 2.004 5.236.01 7.22a5.181 5.181 0 0 1-2.236 1.307c-.455.126-.91.184-1.364.184l.01-.01zm0-7.278a2.183 2.183 0 0 0-2.187 2.187c0 .58.232 1.132.639 1.549a2.192 2.192 0 0 0 3.097 0 2.197 2.197 0 0 0 0-3.098s-.03-.029-.039-.029a2.186 2.186 0 0 0-1.52-.61h.01z"/><path d="M39.924 20.77a10.362 10.362 0 0 1-7.346-3.039 1.873 1.873 0 0 1-.135-.145c-3.891-4.055-3.833-10.579.135-14.547 4.056-4.046 10.637-4.046 14.693 0 2.584 2.584 3.61 6.262 2.729 9.834a10.386 10.386 0 0 1-2.73 4.858 10.362 10.362 0 0 1-7.346 3.04zM34.63 5.091c-2.855 2.855-2.903 7.56-.097 10.472.02.02.087.097.107.117 2.913 2.913 7.665 2.913 10.579 0a7.472 7.472 0 0 0 1.965-3.504c.629-2.575-.107-5.227-1.965-7.085a7.507 7.507 0 0 0-10.589 0zM79.499 32.094c-2.71 0-5.343-1.064-7.327-3.039a10.408 10.408 0 0 1-2.371-10.995 10.273 10.273 0 0 1 2.371-3.697 10.307 10.307 0 0 1 7.346-3.039c2.778 0 5.382 1.084 7.347 3.04 4.045 4.054 4.045 10.636 0 14.691a10.318 10.318 0 0 1-4.21 2.555c-1.046.33-2.101.494-3.156.494v-.01zm.02-17.876a7.399 7.399 0 0 0-5.295 2.197 7.58 7.58 0 0 0-1.713 2.662 7.51 7.51 0 0 0 1.713 7.926 7.477 7.477 0 0 0 7.56 1.84 7.396 7.396 0 0 0 3.029-1.84 7.506 7.506 0 0 0 0-10.588 7.439 7.439 0 0 0-5.295-2.197zM21.272 89.683a10.362 10.362 0 0 1-7.346-3.04 10.307 10.307 0 0 1-3.039-7.346c0-2.777 1.084-5.381 3.04-7.346a10.444 10.444 0 0 1 4.8-2.72c3.533-.89 7.327.155 9.892 2.72 2.603 2.604 3.62 6.301 2.72 9.892a10.36 10.36 0 0 1-10.067 7.84zm.04-17.867c-.62 0-1.25.077-1.869.232a7.43 7.43 0 0 0-3.455 1.955 7.439 7.439 0 0 0-2.197 5.294c0 2.004.774 3.882 2.197 5.295 2.923 2.913 7.665 2.922 10.588 0a7.478 7.478 0 0 0 1.955-3.456c.649-2.584-.077-5.255-1.955-7.123a7.4 7.4 0 0 0-5.255-2.188l-.01-.01zM61.15 100a10.347 10.347 0 0 1-7.347-3.04c-2.564-2.564-3.59-6.213-2.748-9.765a10.353 10.353 0 0 1 2.748-4.926 10.306 10.306 0 0 1 7.347-3.04c2.777 0 5.38 1.085 7.346 3.04.058.058.106.116.154.164 3.94 4.152 3.862 10.521-.154 14.528A10.306 10.306 0 0 1 61.15 100zm-5.295-15.68a7.434 7.434 0 0 0-1.974 3.553c-.61 2.555.126 5.187 1.974 7.036a7.439 7.439 0 0 0 5.295 2.197 7.399 7.399 0 0 0 5.294-2.197c2.884-2.884 2.942-7.472.135-10.443l-.116-.126a7.455 7.455 0 0 0-5.313-2.216 7.398 7.398 0 0 0-5.295 2.197zM90.001 71.187c-2.564 0-5.13-.959-7.152-2.875-.087-.077-.145-.126-.194-.184-4.055-4.055-4.055-10.646 0-14.692a10.361 10.361 0 0 1 5.12-2.797c3.485-.765 7.056.28 9.572 2.797a10.306 10.306 0 0 1 3.04 7.346c0 2.778-1.084 5.381-3.04 7.346a10.329 10.329 0 0 1-7.336 3.059h-.01zm0-17.887a7.488 7.488 0 0 0-5.314 2.187 7.506 7.506 0 0 0 0 10.59l.136.125c2.972 2.826 7.56 2.768 10.444-.126a7.438 7.438 0 0 0 2.197-5.294 7.398 7.398 0 0 0-2.197-5.294 7.427 7.427 0 0 0-5.275-2.188h.01z"/><path d="M81.407 59.746c-.126 0-.251-.019-.377-.048l-15.225-4.075a1.456 1.456 0 0 1-1.026-1.78 1.456 1.456 0 0 1 1.781-1.027l15.225 4.075a1.456 1.456 0 0 1 1.026 1.781 1.455 1.455 0 0 1-1.404 1.074zM35.694 47.503c-.126 0-.251-.02-.377-.048L18.999 43.08a1.456 1.456 0 0 1-1.026-1.781 1.449 1.449 0 0 1 1.78-1.026l16.319 4.375a1.456 1.456 0 0 1 1.026 1.78 1.455 1.455 0 0 1-1.404 1.075zM58.835 82.433c-.638 0-1.229-.426-1.403-1.074l-4.104-15.322a1.46 1.46 0 0 1 1.026-1.78 1.46 1.46 0 0 1 1.781 1.026l4.104 15.32a1.46 1.46 0 0 1-1.026 1.782 1.264 1.264 0 0 1-.378.048zM46.583 36.692c-.64 0-1.23-.426-1.404-1.075l-4.2-15.689a1.46 1.46 0 0 1 1.026-1.78 1.46 1.46 0 0 1 1.78 1.026l4.2 15.689a1.46 1.46 0 0 1-1.025 1.78 1.265 1.265 0 0 1-.377.049zM61.634 40.389a1.46 1.46 0 0 1-1.026-.426 1.443 1.443 0 0 1 0-2.052l11.257-11.256a1.443 1.443 0 0 1 2.052 0c.561.57.57 1.49 0 2.052L62.66 39.963a1.46 1.46 0 0 1-1.026.426zM27.593 74.429a1.46 1.46 0 0 1-1.026-.426 1.443 1.443 0 0 1 0-2.052l11.77-11.77a1.443 1.443 0 0 1 2.052 0c.57.572.57 1.492 0 2.053l-11.77 11.77a1.46 1.46 0 0 1-1.026.425zM49.7 58.595h-.068a1.438 1.438 0 0 1-1.268-.89l-3.407-8.121a1.451 1.451 0 0 1 .775-1.897 1.451 1.451 0 0 1 1.897.774l2.235 5.323 5.266-9.765a1.45 1.45 0 0 1 2.555 1.374L50.977 57.83a1.444 1.444 0 0 1-1.277.765z"/></g><defs><clipPath id="a"><path fill="#fff" transform="translate(.29)" d="M0 0h100.087v100H0z"/></clipPath></defs></svg>