<svg width="101" height="100" fill="none" xmlns="http://www.w3.org/2000/svg"><g clip-path="url(#a)" fill="#8D3CFA"><path d="M9.233 10.408a1.452 1.452 0 0 1-1.454-1.453c0-.097 0-.194.03-.291a1.47 1.47 0 0 1 .087-.271c.029-.088.077-.165.126-.252.058-.078.116-.155.184-.214.068-.067.135-.135.223-.184a1.95 1.95 0 0 1 .242-.135c.097-.04.184-.059.28-.078.185-.039.379-.039.563 0 .097.02.184.039.271.078.088.038.175.087.252.135.078.049.155.117.223.184.068.059.126.136.184.214.049.087.097.164.126.252.039.087.068.184.088.27a1.47 1.47 0 0 1-.397 1.318c-.272.272-.64.427-1.028.427zM19.67 8.955c0-.805.65-1.454 1.454-1.454.804 0 1.453.65 1.453 1.454 0 .804-.65 1.453-1.453 1.453-.805 0-1.454-.649-1.454-1.453zM33.014 10.408a1.452 1.452 0 0 1-1.454-1.453c0-.097 0-.194.03-.291.019-.087.048-.184.077-.271.039-.088.087-.175.136-.252.058-.078.116-.155.184-.214.533-.542 1.512-.542 2.054 0a1.452 1.452 0 0 1 0 2.055c-.135.136-.29.242-.474.31a1.346 1.346 0 0 1-.553.116zM2.256 89.766c-.804 0-1.453-.649-1.453-1.453V1.453C.803.65 1.452 0 2.256 0 3.061 0 3.71.65 3.71 1.454v86.859c0 .804-.65 1.453-1.454 1.453zM73.31 33.298c-.805 0-1.454-.65-1.454-1.454V14.682c0-.805.649-1.454 1.453-1.454s1.454.65 1.454 1.454v17.152c0 .805-.65 1.454-1.454 1.454v.01zM73.31 85.028c-.805 0-1.454-.65-1.454-1.454V68.04c0-.805.649-1.454 1.453-1.454s1.454.65 1.454 1.454v15.534c0 .804-.65 1.454-1.454 1.454z"/><path d="M14.186 100c-.436 0-.853-.02-1.28-.058C6.006 99.37.793 94.33.793 88.226c0-.805.65-1.454 1.454-1.454.804 0 1.453.65 1.453 1.454 0 4.574 4.06 8.363 9.44 8.809.338.029.687.048 1.036.048 5.776 0 10.476-3.973 10.476-8.857v-4.662c0-.804.65-1.453 1.453-1.453.805 0 1.454.649 1.454 1.453v4.662c0 6.493-6.008 11.764-13.383 11.764l.01.01z"/><path d="M70.538 100H14.186c-.804 0-1.454-.65-1.454-1.454 0-.804.65-1.453 1.454-1.453 5.776 0 10.476-3.974 10.476-8.858v-4.661c0-.804.65-1.454 1.454-1.454h56.352c.804 0 1.453.65 1.453 1.454v4.661c0 6.493-6.008 11.765-13.383 11.765zm-47.553-2.907h47.553c5.776 0 10.476-3.974 10.476-8.858v-3.207H27.58v3.207c0 3.528-1.774 6.697-4.584 8.858h-.01zM73.31 16.135H2.256c-.804 0-1.453-.649-1.453-1.453V1.454C.803.649 1.452 0 2.256 0H73.31c.804 0 1.453.65 1.453 1.454v13.228c0 .804-.649 1.453-1.453 1.453zm-69.6-2.907h68.146V2.908H3.71v10.32zM93.138 69.367c-.174 0-.349 0-.523-.029l-25.807-2.015a1.45 1.45 0 0 1-1.337-1.454v-8.121c0-.756.581-1.386 1.337-1.454l25.826-2.015c1.59-.146 3.16.387 4.4 1.521 1.55 1.415 2.442 3.605 2.442 6.008 0 2.404-.892 4.594-2.442 6.009-1.105 1.008-2.471 1.54-3.896 1.54v.01zm-24.76-4.836 24.48 1.91c1.046.096 1.772-.369 2.218-.776.95-.862 1.493-2.267 1.493-3.857 0-1.589-.543-2.994-1.493-3.857-.445-.407-1.172-.852-2.19-.775l-24.508 1.91v5.446zM42.794 66.741h-9.303c-.805 0-1.454-.65-1.454-1.454v-6.929c0-.804.65-1.453 1.454-1.453h9.303c.378 0 .746.145 1.018.416l3.527 3.47c.281.271.436.65.436 1.037 0 .387-.155.765-.436 1.037l-3.527 3.469c-.272.271-.64.417-1.018.417v-.01zm-7.85-2.907h7.259l2.045-2.016-2.045-2.016h-7.259v4.032z"/><path d="M66.914 63.272H46.32c-.804 0-1.454-.65-1.454-1.454 0-.804.65-1.453 1.454-1.453h20.593c.804 0 1.454.649 1.454 1.453 0 .805-.65 1.454-1.454 1.454z"/><g><path d="M25.194 51.187c-.252 0-.504-.068-.736-.203l-10.166-5.96a1.456 1.456 0 0 1-.524-1.987 1.465 1.465 0 0 1 1.987-.523l9.43 5.524 8.711-5.107v-1.125c0-.804.65-1.453 1.454-1.453.804 0 1.454.65 1.454 1.453v1.958c0 .514-.272.998-.718 1.25l-10.165 5.96a1.432 1.432 0 0 1-.737.204l.01.01zM35.36 35.275c-.804 0-1.454-.65-1.454-1.454v-1.124l-8.712-5.107-9.429 5.524a1.448 1.448 0 0 1-1.987-.524 1.448 1.448 0 0 1 .524-1.986l10.165-5.96a1.435 1.435 0 0 1 1.473 0l10.166 5.96c.446.262.717.736.717 1.25v1.958c0 .804-.649 1.453-1.453 1.453l-.01.01z"/><path d="M25.194 45.944c-.252 0-.505-.067-.737-.203l-5.698-3.334a1.465 1.465 0 0 1-.524-1.986 1.465 1.465 0 0 1 1.987-.524l4.962 2.908 4.244-2.49v-5.011l-4.244-2.49-4.962 2.907a1.448 1.448 0 0 1-1.987-.524 1.448 1.448 0 0 1 .524-1.986l5.698-3.334a1.434 1.434 0 0 1 1.473 0l5.698 3.334c.446.261.717.736.717 1.25v6.677c0 .514-.271.998-.717 1.25l-5.698 3.334a1.432 1.432 0 0 1-.736.203v.02z"/><path d="M15.028 45.228a1.451 1.451 0 0 1-.726-2.704l4.467-2.617a1.448 1.448 0 0 1 1.987.524c.407.688.174 1.58-.523 1.986l-4.468 2.617a1.457 1.457 0 0 1-.737.203v-.01zM19.496 35.934c-.252 0-.504-.068-.737-.204l-4.467-2.616a1.456 1.456 0 0 1-.524-1.987 1.456 1.456 0 0 1 1.987-.523l4.468 2.616c.688.407.92 1.299.523 1.987a1.442 1.442 0 0 1-1.25.717v.01zM88.912 51.187c-.252 0-.504-.068-.736-.203l-10.166-5.96a1.448 1.448 0 0 1-.717-1.25v-1.958c0-.804.65-1.454 1.454-1.454.804 0 1.453.65 1.453 1.454v1.124l8.712 5.107 9.43-5.523a1.448 1.448 0 0 1 1.986.523c.407.688.175 1.58-.523 1.986l-10.166 5.96a1.43 1.43 0 0 1-.736.204l.01-.01zM78.747 35.275c-.805 0-1.454-.65-1.454-1.454v-1.957c0-.514.271-.998.717-1.25l10.166-5.96a1.435 1.435 0 0 1 1.473 0l10.165 5.96c.689.407.921 1.298.524 1.986a1.457 1.457 0 0 1-1.987.523L88.922 27.6l-8.712 5.107v1.124c0 .804-.65 1.454-1.454 1.454l-.01-.01z"/><path d="M88.912 45.944c-.252 0-.504-.067-.737-.203l-5.698-3.334a1.448 1.448 0 0 1-.717-1.25V34.48c0-.513.271-.998.717-1.25l5.698-3.334a1.434 1.434 0 0 1 1.473 0l5.698 3.334c.688.407.93 1.299.524 1.987a1.448 1.448 0 0 1-1.987.523l-4.962-2.907-4.244 2.49v5.01l4.244 2.491 4.962-2.907a1.448 1.448 0 0 1 1.987.523c.407.688.174 1.58-.524 1.987l-5.698 3.333a1.43 1.43 0 0 1-.736.204v-.02z"/><path d="M99.078 45.227c-.252 0-.504-.067-.737-.203l-4.467-2.617a1.456 1.456 0 0 1-.523-1.986 1.465 1.465 0 0 1 1.986-.524l4.468 2.617c.688.407.92 1.299.523 1.987a1.442 1.442 0 0 1-1.25.717v.01zM94.61 35.934a1.451 1.451 0 0 1-.726-2.704l4.467-2.616a1.448 1.448 0 0 1 1.987.523c.407.688.174 1.58-.523 1.986l-4.468 2.617a1.458 1.458 0 0 1-.736.203v-.01zM78.746 43.27H35.36c-.804 0-1.454-.65-1.454-1.454 0-.804.65-1.454 1.454-1.454h43.386c.804 0 1.454.65 1.454 1.454 0 .804-.65 1.454-1.454 1.454zM78.746 35.275H35.36c-.804 0-1.454-.65-1.454-1.454 0-.804.65-1.453 1.454-1.453h43.386c.804 0 1.454.649 1.454 1.453 0 .805-.65 1.454-1.454 1.454z"/></g><path d="M73.31 58.717c-.805 0-1.454-.65-1.454-1.454V41.816c0-.804.649-1.454 1.453-1.454s1.454.65 1.454 1.454v15.447c0 .805-.65 1.454-1.454 1.454z"/></g><defs><clipPath id="a"><path fill="#fff" transform="translate(.803)" d="M0 0h99.729v100H0z"/></clipPath></defs></svg>