<svg width="101" height="100" fill="none" xmlns="http://www.w3.org/2000/svg"><path d="M.667 25c0-13.807 11.193-25 25-25h50c13.807 0 25 11.193 25 25v50c0 13.807-11.193 25-25 25h-75V25z" fill="#8D3CFA"/><path d="M.667 0h100v100l-52.5-49L.667 0z" fill="url(#a)" style="mix-blend-mode:overlay" opacity=".3"/><path d="M65.25 38.75c0 2.063-.417 3.854-1.25 5.375a10.59 10.59 0 0 1-3.438 3.75c-1.437.958-3.104 1.646-5 2.063v.218c3.646.459 6.396 1.604 8.25 3.438 1.876 1.833 2.813 4.26 2.813 7.281 0 2.646-.635 5.01-1.906 7.094-1.271 2.062-3.219 3.687-5.844 4.875-2.625 1.187-6 1.781-10.125 1.781-2.48 0-4.781-.198-6.906-.594a25.512 25.512 0 0 1-6-1.906v-6.531c1.937.958 4 1.698 6.187 2.219 2.188.52 4.26.78 6.219.78 3.813 0 6.531-.708 8.156-2.124 1.625-1.438 2.438-3.417 2.438-5.938 0-1.625-.427-2.958-1.282-4-.833-1.041-2.135-1.823-3.906-2.343-1.75-.521-4.01-.782-6.781-.782h-4.031V47.5h4.062c2.646 0 4.771-.313 6.375-.938 1.604-.645 2.76-1.53 3.469-2.656.73-1.125 1.094-2.437 1.094-3.937 0-1.959-.636-3.48-1.907-4.563-1.27-1.104-3.156-1.656-5.656-1.656-1.541 0-2.948.177-4.218.531-1.25.354-2.407.802-3.47 1.344a32.877 32.877 0 0 0-3.03 1.75l-3.532-5.094c1.73-1.291 3.792-2.385 6.188-3.281 2.396-.896 5.187-1.344 8.375-1.344 4.687 0 8.302 1.01 10.843 3.032 2.542 2 3.813 4.687 3.813 8.062z" fill="#fff"/><defs><linearGradient id="a" x1="94.667" y1="91.5" x2="-12.833" y2="-23" gradientUnits="userSpaceOnUse"><stop offset=".116" stop-color="#fff" stop-opacity="0"/><stop offset="1" stop-color="#fff"/></linearGradient></defs></svg>