<svg width="100" height="100" fill="none" xmlns="http://www.w3.org/2000/svg"><path d="M0 25C0 11.193 11.193 0 25 0h50c13.807 0 25 11.193 25 25v50c0 13.807-11.193 25-25 25H0V25z" fill="#8D3CFA"/><path d="M0 0h100v100L47.5 51 0 0z" fill="url(#a)" style="mix-blend-mode:overlay" opacity=".3"/><path d="M66 74.5H35.062v-5.531l11.844-12c2.292-2.334 4.177-4.344 5.657-6.032 1.479-1.708 2.572-3.322 3.28-4.843.73-1.521 1.094-3.177 1.094-4.969 0-2.208-.635-3.875-1.906-5-1.27-1.146-2.948-1.719-5.031-1.719-1.98 0-3.813.396-5.5 1.188-1.667.77-3.396 1.875-5.188 3.312l-4.03-4.843a33.839 33.839 0 0 1 4.062-2.97c1.458-.895 3.083-1.603 4.875-2.124 1.791-.542 3.833-.813 6.125-.813 2.896 0 5.396.521 7.5 1.563 2.104 1.02 3.718 2.448 4.843 4.281 1.146 1.833 1.72 3.969 1.72 6.406 0 2.459-.49 4.73-1.47 6.813-.979 2.083-2.374 4.146-4.187 6.187-1.813 2.021-3.969 4.219-6.469 6.594l-7.906 7.719v.344H66V74.5z" fill="#fff"/><defs><linearGradient id="a" x1="94" y1="91.5" x2="-13.5" y2="-23" gradientUnits="userSpaceOnUse"><stop offset=".116" stop-color="#fff" stop-opacity="0"/><stop offset="1" stop-color="#fff"/></linearGradient></defs></svg>