<svg width="101" height="100" fill="none" xmlns="http://www.w3.org/2000/svg"><path d="M.333 25c0-13.807 11.193-25 25-25h50c13.808 0 25 11.193 25 25v50c0 13.807-11.192 25-25 25h-75V25z" fill="#8D3CFA"/><path d="M.333 0h100v100l-52.5-49L.334 0z" fill="url(#a)" style="mix-blend-mode:overlay" opacity=".3"/><path d="M56.656 74.5h-7.375V45.094c0-.98.01-1.959.032-2.938.02-.979.041-1.937.062-2.875.042-.937.094-1.833.156-2.687-.437.479-.979 1-1.625 1.562a99.325 99.325 0 0 1-2 1.75l-5.25 4.188-3.687-4.657L50.53 28.813h6.125V74.5z" fill="#fff"/><defs><linearGradient id="a" x1="94.334" y1="91.5" x2="-13.166" y2="-23" gradientUnits="userSpaceOnUse"><stop offset=".116" stop-color="#fff" stop-opacity="0"/><stop offset="1" stop-color="#fff"/></linearGradient></defs></svg>